<?xml version="1.0" encoding="UTF-8" standalone="no"?><!DOCTYPE svg PUBLIC "-//W3C//DTD SVG 1.1//EN" "http://www.w3.org/Graphics/SVG/1.1/DTD/svg11.dtd"><svg width="100%" height="100%" viewBox="0 0 2000 2000" version="1.1" xmlns="http://www.w3.org/2000/svg" xmlns:xlink="http://www.w3.org/1999/xlink" xml:space="preserve" xmlns:serif="http://www.serif.com/" style="fill-rule:evenodd;clip-rule:evenodd;stroke-linejoin:round;stroke-miterlimit:2;"><g><path d="M1697.378,646.291c8.656,2.972 8.759,2.299 16.897,6.635c2.334,1.244 19.152,10.206 27.904,17.738c4.377,3.767 3.693,4.318 8.419,7.837c1.124,0.837 18.868,16.144 21.944,23.848c3.8,9.517 8.889,12.809 11.623,17.205c20.088,32.301 34.33,78.912 35.486,82.177c7.572,21.39 9.709,21.193 33.772,145.979c5.274,27.352 2.416,27.962 9.15,45.975c5.99,38.423 5.729,38.386 6.268,41.717c6.215,22.627 2.568,23.176 8.167,45.856c8.149,33.012 3.719,33.977 14.63,66.048c5.783,16.998 3.782,17.395 9.161,34.375c13.932,43.976 28.648,59.236 32.604,63.338c10.471,10.974 11.015,10.177 22.257,20.461c16.393,14.995 48.809,8.536 28.282,22.571c-21.778,14.89 -22.75,12.963 -48.584,17.785c-8.498,1.059 -8.286,1.036 -16.548,3.002c-13.096,-1.692 -30.035,-5.378 -37.66,-3.866c-3.081,0.611 -8.809,-0.387 -9.017,34.551c0.901,10.471 1.424,10.46 -0.957,20.735c-5.24,22.613 -3.755,22.849 -4.287,24.79c-0.911,3.32 -6.073,22.136 -12.618,41.148c-6.34,18.414 -7.902,17.706 -14.643,38.405c-3.79,11.638 -16.303,33.375 -18.594,40.15c-16.676,36.072 -62.648,111.173 -74.699,150.912c-3.241,10.688 -3.074,10.613 -6.03,21.466c-4.787,17.579 12.696,44.813 15.269,46.344c25.426,15.132 -32.481,16.385 -49.432,8.01c-19.518,-9.643 -22.16,-12.27 -23.717,-13.818c-1.278,-1.271 -13.104,-16.507 -14.582,-19.347c-7.78,-14.945 -5.093,-29.105 -11.598,-29.421c-3.526,-0.171 -3.865,-0.193 -5.168,2.969c-7.566,18.367 -9.642,17.035 -21.163,33.278c-12.909,18.201 -14.705,16.482 -23.979,25.735c-21.578,21.527 -42.03,30.706 -46.153,32.556c-14.506,6.51 -13.699,7.775 -27.686,15.173c-44.212,23.384 -43.362,24.829 -47.397,26.433c-5.013,1.992 -38.219,23.745 -55.764,52.842c-10.213,16.937 -12.895,3.127 -13.024,2.079c-4.228,-34.23 1.376,-33.881 5.577,-54.103c0.548,-2.639 0.791,-5.335 1.355,-7.971c1.908,-8.924 18.414,-30.887 17.362,-33.338c-3.443,-8.02 -6.283,-2.7 -26.187,2.618c-8.379,2.239 -7.961,2.84 -16.18,5.498c-31.37,10.145 -31.495,9.075 -62.777,19.945c-1.145,0.398 -7.816,0.618 -11.937,1.93c-41.715,13.28 -42.404,10.703 -45.959,12.048c-23.976,9.073 -27.52,6.306 -45.94,11.984c-14.169,4.368 -14.566,1.862 -28.995,5.072c-29.088,6.472 -29.332,4.583 -58.551,10.517c-12.339,2.506 -61.903,5.672 -66.579,5.534c-6.347,-0.347 -6.186,-0.341 -12.516,0.234c-3.325,0.267 -15.068,1.209 -41.697,0.613c-98.685,-2.207 -181.116,-26.106 -233.354,-42.471c-3.908,-0.743 -7.816,-1.486 -11.724,-2.228c-28.214,-10.942 -69.722,-23.654 -83.548,-28.648c-8.792,-2.839 -8.7,-2.746 -17.515,-5.655c-5.73,-1.891 -5.766,-0.936 -11.62,-2.658c-14.041,-4.128 -36.978,-15.592 -62.171,-21.359c-13.318,-3.048 -24.02,-10.285 -29.827,-11.346c-2.388,-0.436 -19.18,-3.505 -29.621,-6.577c-17.121,-5.037 -72.433,-20.759 -78.736,-22.55c-20.585,-5.851 -20.931,-3.79 -41.488,-9.38c-33.21,-9.032 -34.446,-5.497 -36.373,-7.763c-4.87,-5.728 16.084,-5.016 40.004,-15.713c18.881,-8.444 19.053,-7.945 20.688,-8.686c12.8,-5.801 12.04,-6.993 24.98,-12.545c27.085,-11.621 28.967,-9.51 28.924,-12.015c-0.188,-10.982 -7.586,-2.301 -45.458,-11.292c1.058,-0.842 2.902,1.723 3.959,0.88c2.332,-1.857 2.204,-5.881 4.581,-7.68c1.142,-0.865 2.8,1.488 4.167,1.058c1.324,-0.417 0.385,-1.759 14.224,-9.94c1.084,-0.641 7.983,-1.403 10,-0.026c0.411,0.28 2.542,7.345 8.202,1.132c2.974,-3.265 3.921,-4.305 55.105,-3.338c26.302,0.497 27.881,1.603 29.847,2.979c3.937,2.757 4.642,-0.55 11.791,1.36c0.652,0.174 6.783,1.812 8.35,1.181c1.581,-0.636 2.418,-2.532 3.985,-3.201c4.514,-1.929 7.496,2.548 7.871,3.112c0.965,1.448 -0.437,2.51 3.617,4.992c5.455,3.339 9.171,3.611 9.509,3.804c1.977,1.133 3.176,3.359 5.154,4.492c-36.939,21.88 -36.906,21.81 -38.655,22.969c-24.452,15.57 -25.583,16.079 -24.805,21.143c0.849,5.526 2.705,4.14 8.204,4.611c27.854,2.386 27.246,5.237 54.554,11.001c18.59,3.924 108.479,26.913 166.599,37.591c71.661,14.834 72.535,8.773 95.609,13.536c10.774,2.224 52.679,10.875 137.468,3.64c10.794,-0.921 11.443,-3.989 46.032,-7.12c2.005,-0.181 1.941,-0.291 24.359,-6.321c12.875,-3.463 12.417,-4.32 25.759,-10.332c49.958,-23.919 55.886,-29.794 59.784,-33.657c4.337,-1.601 7.12,-0.371 5.631,-4.8c-2.261,-6.727 -4.572,-3.555 -11.351,-1.188c-32.178,8.138 -36.978,15.295 -75.002,15.466c-9.986,0.045 -15.951,2.578 -29.297,3.156c-22.975,0.994 -22.813,1.52 -45.887,2.409c-6.859,0.264 -14.391,-2.003 -33.405,-1.641c-42.256,0.805 -60.622,-8.099 -63.506,-8.943l1.068,-4.935c16.135,-3.012 78.583,-4.697 112.661,-16.102c7.638,-2.556 16.671,-3.171 20.8,-4.114c26.747,-6.113 32.87,-11.024 33.637,-11.348c60.444,-19.892 133.563,-64.849 149.716,-76.556c11.242,-9.603 11.587,-9.035 41.149,-29.912c18.704,-13.209 27.523,-24.066 50.425,-36.89c5.588,-3.129 36.581,-30.182 46.974,-36.116c56.107,-42.313 58.59,-38.384 65.457,-43.151c5.873,-4.076 36.031,-25.009 79.393,-41.01c4.434,-1.636 14.041,-8.484 25.148,-9.596c12.624,-1.263 -14.415,17.7 -17.659,25.058c-3.853,8.74 -11.758,12.678 -16.354,21.196c-7.871,14.585 -12.872,16.04 -15.562,21.551c-1.707,3.497 -5.534,11.338 -25.039,41.699c-13.157,20.481 -13.869,19.901 -25.185,41.549c-4.906,7.872 -8.497,16.45 -29.786,37.075c-0.112,3.129 -0.225,6.257 -0.337,9.386c0.549,-0.07 -0.164,1.685 0.385,1.615c0.379,-0.048 0.512,-0.065 4.237,-2.202c56.68,-32.525 57.455,-31.069 62.373,-33.91c2.595,-1.5 12.916,-10.144 13.935,-10.761c17.894,-10.842 17.912,-10.722 33.288,-24.914c4.809,-4.916 37.925,-34.508 41.408,-42.499c3.055,-7.009 5.566,-5.408 8.189,-12.514c5.938,-16.085 10.795,-5.687 10.923,-4.743c0.807,5.956 -4.357,5.577 -7.543,74.752c-0.208,4.508 -2.597,56.396 1.267,56.401c1.168,0.001 1.801,-1.517 2.837,-2.055c5.211,-2.706 3.599,-3.999 6.102,-11.191c2.717,-7.806 76.887,-115.329 88.448,-139.671c10.736,-22.606 38.208,-65.927 40.433,-103.139c0.062,-1.033 0.632,-10.569 6.017,-11.455c1.262,-0.208 0.279,0.872 5.568,14.99c7.211,19.249 5.139,29.049 10.118,46.322c3.23,16.426 3.791,16.303 3.023,32.883c-0.443,9.57 5.671,12.359 10.202,3.9c1.44,-2.689 -0.595,-3.242 9.292,-36.976l4.136,-8.337c6.182,-39.523 7.147,-42.311 8.366,-45.833c0.215,-1.984 1.026,-9.476 1.357,-24.913c2.454,-14.57 1.12,-14.626 3.468,-29.204c2.487,-19.96 3.65,-84.967 5.28,-112.575c0.314,-5.325 -1.533,-5.273 -2.11,-66.646c-0.118,-12.556 -1.341,-12.434 -0.453,-24.899c0.5,-7.031 -12.59,-149.961 -27.445,-196.149c-8.892,-69.592 -38.277,-129.334 -45.029,-146.877c-7.295,-18.955 -9.608,-17.597 -25.095,-41.811c-6.511,-10.18 -8.06,-9.365 -10.6,-21.064Z" style="fill:currentColor"/><path d="M951.178,1180.854c0.887,1.927 3.55,2.635 4.437,4.563c0.584,1.268 -0.73,2.806 -0.42,4.167c0.353,1.549 2.071,2.597 2.316,4.167c0.148,0.951 -1.59,1.692 -1.262,2.596c0.028,0.078 7.056,6.06 7.672,6.584c5.363,4.565 7.069,-0.089 13.161,3.794c1.995,1.271 3.736,2.914 5.731,4.185l1.127,2.816c-0.274,0.898 -5.336,11.781 -0.944,15.974c4.823,4.606 13.462,-3.465 32.114,-9.181c51.255,-15.708 50.743,-17.129 103.177,-28.685c25.697,-5.959 54.583,-11.933 116.901,-9.116c20.431,0.924 27.686,5.246 29.781,6.494c-1.792,1.152 -2.255,3.796 -4.047,4.949c-3.086,1.984 -16.056,2.299 -17.465,2.334c-18.366,0.447 -67.017,10.391 -87.567,20.79c-5.216,2.64 -5.696,1.432 -66.525,30.23c-3.225,2.167 -3.832,1.062 -41.9,24.562c-0.653,0.403 -29.716,13.079 -36.842,17.852c-49.889,33.411 -76.719,37.835 -104.684,52.884c-32.722,10.743 -33.524,7.417 -66.406,17.407c-12.24,3.719 -60.154,7.89 -62.529,7.854c-4.679,-0.071 -4.595,0.59 -58.424,2.761c-45.749,1.845 -45.553,3.014 -95.777,4.46c-5.672,0.163 -5.577,0.629 -70.749,4.981c-35.54,2.373 -35.373,2.52 -70.614,6.67c-6.729,0.792 -6.56,0.662 -13.159,0.721c-16.756,1.478 -16.093,4.038 -32.661,7.025c-4.009,0.723 -42.796,7.714 -49.302,12.717c-0.857,0.659 -1.021,2.038 -1.949,2.593c-1.595,0.954 -3.801,0.637 -5.297,1.741c-0.757,0.559 -4.374,8.288 10.562,5.176c62.921,-13.109 63.947,-3.714 79.135,-7.073c12.329,-2.727 12.293,-1.932 24.94,-1.764c34.385,4.117 82.544,4.524 100.184,14.72c-1.636,1.115 -0.179,6.207 -12.36,5.312c-35.463,-2.605 -50.132,-0.289 -50.322,-0.265c-13.787,0.702 -88.695,7.33 -108.587,14.16c-7.333,2.518 -22.895,4.853 -24.907,5.155c-17.124,2.569 -16.569,4.055 -32.752,10.297c-16.59,6.464 -17.129,4.471 -33.906,10.774c-29.848,11.214 -41.958,19.648 -45.26,21.947c-11.725,8.166 -14.366,4.126 -62.603,41.417c-12.062,9.325 -24.197,12.99 -19.835,19.455c3.428,5.081 19.397,-4.005 36.243,-2.714c0.998,0.076 0.922,0.089 12.449,1.206c5.99,-0.264 22.88,-1.009 74.812,4.602c12.036,1.3 35.574,6.507 58.123,8.164c9.425,0.693 123.109,23.33 175.412,22.351c29.233,-0.547 42.199,-3.293 45.797,-4.055c2.563,-0.437 48.718,-3.677 92.754,-35.411c27.7,-19.961 -2.916,48.004 -51.181,69.09c-0.948,0.414 -0.802,0.653 -11.362,6.176c-1.977,-1.133 -3.176,-3.359 -5.154,-4.492c-0.338,-0.194 -4.054,-0.465 -9.509,-3.804c-4.054,-2.482 -2.652,-3.544 -3.617,-4.992c-0.375,-0.564 -3.358,-5.041 -7.871,-3.112c-1.567,0.67 -2.404,2.565 -3.985,3.201c-1.567,0.631 -7.698,-1.007 -8.35,-1.181c-7.149,-1.91 -7.854,1.397 -11.791,-1.36c-1.966,-1.376 -3.545,-2.483 -29.847,-2.979c-51.184,-0.967 -52.131,0.073 -55.105,3.338c-5.66,6.214 -7.791,-0.851 -8.202,-1.132c-2.017,-1.377 -8.916,-0.615 -10,0.026c-13.839,8.182 -12.9,9.523 -14.224,9.94c-1.367,0.431 -3.024,-1.923 -4.167,-1.058c-2.377,1.799 -2.249,5.824 -4.581,7.68c-1.058,0.842 -2.902,-1.723 -3.959,-0.88c-11.075,-3.183 -32.742,-8.288 -37.09,-10.09c-33.757,-13.992 -34.509,-11.61 -37.383,-12.935c-1.621,-0.747 -13.653,-6.295 -21.07,-7.331c-25.781,-3.601 -24.157,-10.43 -49.967,-12.74c-29.368,-0.599 -31.113,-8.029 -83.362,-5.828c-58.037,2.445 -57.596,5.866 -62.626,6.047c-8.484,0.306 -12.587,4.668 -13.035,-3.765c-0.596,-11.235 25.072,-41.116 25.476,-41.848c6.51,-11.827 9.034,-9.596 17.392,-20.104c18.082,-17.954 17.165,-18.702 33.713,-32.878c27.216,-23.316 28.568,-29.216 61.589,-50.9c2.316,-1.685 19.781,-14.396 29.328,-20.54c66.467,-39.992 122.708,-43.353 132.89,-47.259c13.234,-5.076 89.188,-12.998 91.705,-13.154c36.547,-2.263 36.248,-4.119 54.258,-7.041c63.093,-10.236 63.793,-7.209 100.208,-19.892c12.599,-4.388 13.417,-1.983 24.978,-8.549c10.857,-5.728 10.579,-5.919 21.529,-11.761c2.402,-0.521 4.803,-1.041 7.205,-1.562c-0.015,1.609 -1.575,2.948 -1.59,4.556c-0.042,4.403 1.245,4.059 1.482,8.333c0.33,5.95 2.876,3.885 8.745,4.949c15.113,2.738 15.199,-1.541 16.686,-2.243c1.251,-0.591 2.825,-1.068 4.114,-0.563c1.762,0.69 2.315,3.658 4.2,3.821c1.712,0.148 2.443,-2.723 4.119,-3.101c1.426,-0.321 2.785,1.545 4.21,1.224c11.205,5.865 11.915,5.019 12.409,4.097c4.872,-9.083 -0.209,-8.791 -7.242,-16.184c1.053,-1.545 0.496,-3.847 1.549,-5.392c1.022,-1.501 2.945,-2.129 4.354,-3.273c1.853,-1.505 3.28,-3.631 5.429,-4.671c2.081,-1.007 2.237,0.945 4.338,-0.057c2.958,-1.41 1.703,-2.823 4.598,-4.202c0.333,0.043 3.966,3.008 11.9,-0.34c32.64,-13.773 33.861,-11.566 61.977,-33.214c4.458,-3.433 33.091,-25.479 49.164,-50.3c2.789,-5.462 3.714,-4.986 8.958,-20.112Z" style="fill:currentColor"/><path d="M1606.33,768.704c42.08,73.72 62.609,99.709 88.086,111.441c8.115,3.737 10.276,7.43 2.538,11.718c-40.479,22.436 -126.126,25.634 -161.507,18.275c-7.188,-1.495 -53.875,-6.06 -58.567,-6.519c-31.69,-3.099 -44.82,-7.54 -41.59,6.829c0.776,3.454 27.505,68.591 11.114,115.85c-4.804,13.851 -8.356,-1.48 -36.306,-15.368c-3.826,-1.901 -22.455,-15.756 -33.825,-19.644c-26.423,-9.035 -25.118,-13.64 -52.799,-16.235c-12.797,-1.2 -12.393,-3.206 -25.314,-3.498c-1.352,-0.031 -1.252,-0.04 -16.9,-0.546l-7.685,-2.931c0.067,-4.153 -1.536,-5.821 3.693,-7.035c93.111,-21.623 137.989,28.833 131.089,-8.644c-0.98,-5.321 -10.079,-36.236 -10.93,-37.58c-11.173,-17.661 -9.441,-18.703 -22.448,-35.021c-0.052,-0.055 -15.659,-20.168 -30.737,-36.428c-3.891,-4.196 -3.768,-4.115 -3.972,-4.21c-0.986,-0.459 -2.456,0.009 -3.158,-0.821c-0.511,-0.605 0.73,-1.565 0.499,-2.322c-0.162,-0.532 -1.73,1.07 -4.765,-5.057c-2.757,-5.566 9.228,-2.825 10.476,-2.218c4.153,2.022 3.618,2.629 8.03,4.423c0.102,0.041 78.103,26.029 96.343,28.346c91.142,11.574 148.182,2.521 149.144,1.668c5.201,-4.616 -1.519,-7.366 -6.283,-24.091c-1.656,-5.815 -9.012,-19.311 -16.857,-41.496c-21.374,-43.156 -20.333,-43.505 -29.203,-66.662c-4.056,-10.59 -5.705,-9.703 -9.034,-20.534c-2.761,-8.982 -4.965,-7.843 -7.966,-16.857c-0.727,-2.185 -12.606,-22.431 -13.739,-24.36c-6.928,-11.807 -17.672,-35.161 -24.11,-42.136c-10.058,-10.898 -13.742,-10.654 -10.658,-15.689c4.463,-7.289 43.923,22.471 65.159,57.16c22.062,36.038 25.275,33.906 44.355,71.689c5.612,11.112 16.28,26.303 17.826,28.504Z" style="fill:currentColor"/><path d="M1484.492,366.103c2.556,0.995 24.362,11.891 39.112,17.404c15.046,5.624 15.041,5.391 28.77,13.736c3.062,1.861 3.72,0.177 41.606,16.606c1.258,0.545 1.541,-0.481 16.496,4.643c14.419,4.941 94.135,13.496 95.719,13.37c5.123,-0.408 8.586,-2.16 33.395,0.362c2.988,0.029 23.542,-3.199 21.994,7.43c-0.629,4.318 -2.28,15.664 -31.207,44.741c-5.832,5.862 -39.276,31.3 -53.892,37.263c-1.552,0.633 -1.936,-0.59 -19.902,6.558l-8.768,2.871c-0.364,1.309 -0.728,2.618 -1.092,3.927c-0.009,1.472 -1.974,2.473 -1.983,3.945c-0.013,2.096 1.477,0.878 20.947,15.735c1.536,1.172 2.576,-0.524 20.581,12.637c1.571,1.148 2.502,-0.4 20.81,12.587c1.815,1.287 2.563,-0.214 23.77,14.447c1.361,0.941 0.657,1.8 16.297,12.727c2.585,1.741 11.795,7.947 27.467,27.624c0.489,0.614 4.832,6.067 2.918,9.373c-0.482,0.833 -2.26,3.903 -11.834,-2.157c-7.126,-4.511 -5.429,-7.632 -59.599,-31.105c-17.088,-7.404 -79.719,-20.166 -120.387,-67.336c-3.844,-4.458 -37.135,-33.505 -16.94,-32.866c14.005,0.443 33.311,4.729 65.769,-10.399c8.962,-4.177 33.797,-25.399 17.604,-27.746c-1.402,-0.203 -2.844,0.378 -4.246,0.175c-8.452,0.737 -8.282,0.723 -16.638,0.449c-30.122,-2.239 -30.051,-2.613 -58.613,-11.953c-44.392,-15.047 -62.52,-35.013 -95.571,-50.721c-3.908,-1.857 -2.24,-4.496 -46.547,-27.538c-5.883,-3.059 -26.681,-11.829 -29.02,-12.815c-22.159,-9.343 -22.364,-8.598 -37.522,-11.774c-9.166,-1.92 -8.793,-3.894 -33.015,-5.137c-1.215,-0.062 -14.754,-0.757 -15.009,-2.423c-0.04,-0.263 3.92,-5.386 4.324,-5.56c6.932,-2.98 44.829,-8.121 48.513,-7.895c67.561,4.155 107.873,26.317 115.691,28.816Z" style="fill:currentColor"/><path d="M835.653,544.575c50.941,-13.959 51.784,-8.605 103.982,-16.969c11.799,-1.891 35.646,0.092 70.783,-4.676c16.937,-2.298 25.751,1.174 58.26,-4.646c15.34,-2.746 25.116,-0.409 41.58,-5.845c0.646,-0.213 7.434,-2.454 8.36,-1.544c0.924,0.909 -0.464,2.556 -0.553,3.849c-0.404,5.877 -2.661,7.185 -11.126,13.069c-22.761,15.821 -63.384,63.329 -64.693,64.62c-0.629,0.699 -5.881,6.538 -8.087,8.526c-14.362,12.948 -12.358,14.561 -25.498,28.475c-8.283,8.77 -10.211,6.222 -19.043,14.36c-39.676,36.558 -115.722,63.853 -145.868,58.288c-9.152,-1.689 -9.136,0.423 -9.887,0.174c-0.758,-0.252 -5.424,-4.386 6.65,-7.448c3.143,-0.797 6.994,-1.774 35.796,-19.007c36.373,-21.764 68.538,-55.804 77.137,-72.772c8.679,-17.126 -3.228,-14.949 -22.062,-18.86c-12.375,-2.57 -28.465,-1.35 -37.61,-4.206c-12.134,-3.788 -12.4,-1.371 -25.005,-3.364c-6.223,-0.5 -6.055,-0.52 -12.423,-0.541c-29.543,0.628 -29.448,-0.622 -58.722,3.605c-1.359,0.196 -2.742,0.168 -4.107,0.312c-9.009,0.954 -15.114,4.312 -15.902,4.079c-0.875,-0.258 -0.93,-1.636 -1.671,-2.169c-0.64,-0.461 -2.528,0.075 -2.269,-0.669c2.083,-5.992 17.457,-15.497 19.721,-17.141c11.538,-8.375 11.968,-7.417 25.112,-12.684c8.895,-2.8 8.76,-2.754 17.144,-6.816Z" style="fill:currentColor"/><path d="M442.365,730.535c-12.889,16.506 -25.347,50.648 -52.815,58.906c-16.008,4.813 -54.408,1.576 -56.598,-1.319c-3.793,-5.014 3.952,-11.635 7.453,-27.407c4.099,-18.465 8.282,-40.811 38.862,-68.999c20.455,-18.854 96.468,-50.259 118.414,-69.207c5.778,-4.988 7.86,-9.146 11.207,-2.294c2.991,6.121 -7.181,12.235 -7.568,15.141c-0.182,1.365 0.846,2.631 1.068,3.989c0.523,3.207 0.816,3.461 3.967,3.396c45.935,-0.946 45.789,-1.56 99.926,0.478c18.926,0.712 18.701,0.842 37.547,2.926c3.063,0.339 7.346,0.812 38.284,-4.294c3.741,-0.617 5.459,-1.765 5.553,2.15c0.245,10.115 -45.421,24.162 -85.515,18.784c-1.24,-0.166 -80.056,-5.7 -100.246,1.25c-3.181,1.095 -20.031,6.895 -35.272,22.89c-0.383,0.402 -2.956,3.102 -3.651,5.908c-0.311,1.257 0.582,2.848 -0.201,3.88c-0.644,0.848 -2.328,-0.144 -3.151,0.533c-0.897,0.738 -0.725,0.839 -17.263,33.289Z" style="fill:currentColor"/><path d="M0,1010.417l-0,-83.333c2.109,-0.276 4.267,0.525 6.376,0.249c3.774,-0.494 3.542,-1.139 34.432,-19.457c0.307,-0.182 3.389,-0.842 11.26,-5.82c8.216,-5.196 9.23,-8.971 29.205,-20.771c0.715,-0.422 64.206,-45.962 83.897,-70.359c9.342,-11.575 15.836,-12.118 29.055,-29.214c27.373,-35.4 49.456,-52.905 48.919,-79.629c-0.786,-39.106 1.34,-39.882 3.003,-54.285c3.983,-18.149 4.256,-52.671 35.879,-82.441c16.381,-15.421 21.622,-18.187 24.895,-20.7c16.122,-11.367 17.022,-9.604 33.049,-21.164c9.122,-6.579 21.479,-17.256 23.292,-18.823c3.13,-2.705 5.64,-2.049 16.905,-12.272c4.584,-4.16 44.608,-43.355 48.473,-47.139c32.482,-29.951 31.059,-31.639 47.623,-72.579c2.84,-7.02 22.438,-80.018 26.997,-107.886c3.768,-8.934 31.836,-117.263 65.62,-141.76c7.213,-5.231 5.486,-6.975 12.843,-12.082c0.454,-0.315 6.224,-8.247 19.864,-14.782c14.25,-6.827 3.604,12.152 23.773,39.828c6.125,8.404 5.593,8.614 22.336,37.069c10.174,14.647 12.724,20.588 27.008,9.991c17.425,-11.266 17.679,-20.893 32.163,-30.335c3.368,-2.195 16.843,-22.58 30.023,-32.372c8.358,-6.209 6.91,-7.681 15.718,-13.538c0.997,-0.663 0.135,-1.526 11.515,-9.557c0.762,-0.537 0.055,-1.2 8.854,-7.574c6.52,-4.724 22.398,-11.032 33.558,-20.507c8.076,-6.856 50.883,-30.008 59.474,-35.977c15.518,-5.32 24.932,-17.081 26.903,-5.844c4.849,27.648 0.11,29.93 9.523,62.144c2.239,7.662 9.441,45.081 16.887,66.576c8.136,23.487 3.203,81.259 11.475,84.285c15.06,5.51 16.504,-14.902 121.286,-15.273c86.986,-0.308 86.659,4.015 125.032,5.64c128.682,5.449 136.38,-0.32 170.86,-7.508c12.234,-2.551 8.872,4.987 5.001,16.836c-3.419,10.467 -6.859,8.591 -10.803,18.982c-2.387,3.209 -14.963,20.115 -33.064,37.494c-5.551,5.33 -22.964,13.154 -32.618,20.593c-11.765,9.066 -80.476,31.13 -62.458,13.778c2.275,-2.191 2.137,-2.187 5.226,-3.113c9.147,-2.743 26.334,-19.81 28.365,-21.827c15.211,-15.105 -3.502,-15.378 -62.302,-23.913c-38.604,-5.604 -53.484,-5.926 -58.161,-6.027c-2.369,-0.051 -20.512,-3.56 -54.239,-2.909c-16.895,0.326 -16.559,2.942 -33.585,2.75c-14.352,-0.162 -42.353,11.519 -45.874,12.987c-32.142,13.407 -47.871,17.333 -77.07,72.345c-18.158,34.212 -40.777,48.692 -64.475,69.818c-11.067,12.752 -14.03,10.682 -20.607,16.985c-18.647,17.871 -58.667,43.1 -29.302,46.185c9.727,1.022 37.953,8.56 38.079,11.893c0.052,1.364 -0.968,2.643 -1.927,3.614c-1.035,1.047 -1.473,-0.147 -2.575,0.943c-0.94,0.929 0.274,1.332 -0.727,2.321c-1.053,0.139 -1.929,-1.259 -2.982,-1.12c-9.778,1.292 -61.408,30.252 -63.664,30.922c-6.241,1.854 -20.852,10.394 -37.167,12.329c-26.718,3.17 -39.566,7.163 -36.201,-19.598c3.038,-24.159 -19.674,-31.754 -34.398,-37.744c-10.581,-1.341 -10.453,-1.361 -20.82,0.338c-9.637,4.828 -58.993,23.085 -79.792,27.525c-2.783,0.594 -2.708,0.702 -28.759,9.235c-20.989,9.26 -112.326,37.75 -142.334,57.086c-4.472,1.862 -41.026,24.329 -52.182,36.264c-26.486,28.334 -23.444,31.406 -32.151,44.097c-0.658,0.959 -5.114,7.454 -5.726,13.367c-0.123,1.194 1.612,2.172 1.343,3.342c-0.257,1.115 -2.077,0.389 -5.27,13.297c-6.108,24.686 -0.073,36.338 15.637,24.751c4.806,-3.545 3.926,-4.335 5.988,-6.363c0.737,-0.725 2.147,-0.627 2.723,-1.486c0.656,-0.977 -0.201,-2.623 0.608,-3.479c0.191,-0.202 0.452,0.886 3.39,-0.748c2.475,-1.377 1.697,-2.081 4.001,-3.363l3.438,3.083c-0.387,2.677 -0.775,5.354 -1.162,8.03c-3.25,8.227 -6.066,15.454 -6.591,16.799c-6.081,7.85 -5.826,8.073 -29.014,25.108c-11.781,8.655 -11.365,9.163 -17.233,11.755c-9.182,4.055 -8.869,11.405 -24.914,20.958c-2.611,1.555 -12.109,10.727 -13.351,11.831c-1.031,0.969 -5.581,5.245 -12.076,12.926c-21.8,21.032 -27.404,32.349 -29.782,36.892c-1.615,2.367 -47.791,65.157 -66.446,79.317c-27.141,27.086 -38.874,26.446 -48.315,51.292c0.007,6.583 0.28,6.384 1.84,12.595c5.474,20.84 7.943,20.208 9.966,41.623c8.321,16.884 25.372,22.642 44.863,39.178c4.674,3.965 8.962,5.673 16.548,12.731c5.516,5.133 5.658,4.774 12.571,8.113c10.928,5.803 10.524,6.373 22.106,10.825c40.007,15.097 40.903,10.803 83.464,13.037c8.239,-2.664 8.132,-2.601 16.333,-5.654c11.946,-4.177 11.665,-4.83 21.408,-6.652c1.038,-0.194 34.216,-13.854 49.863,-16.86c1.036,-0.199 0.913,-0.348 12.33,-4.694c35.729,-11.88 67.741,-24.42 87.8,-27.936c16.59,-2.907 16.166,-4.417 32.734,-6.936c2.437,-0.371 136.066,-26.154 146.545,-30.772c22.198,-9.783 28.071,-7.096 25.279,-13.702c-3.633,-8.595 -15.193,-5.438 -20.497,-9.811c-3.096,-2.553 2.455,-8.744 3.366,-9.069c5.377,-1.916 5.832,1.54 70.805,-8.784c3.219,-0.511 15.668,-4.486 66.179,-14.884c29.066,-5.983 146.868,-43.698 149.96,-49.268c0.365,-0.657 3.768,-6.786 -3.489,-8.728c-12.903,-3.453 -12.765,-3.263 -25.327,-7.878c-6.004,-2.662 -5.741,-3.015 -12.106,-4.414c-15.052,-3.309 -0.584,-6.774 -0.047,-6.902c2.991,-0.716 2.998,-0.458 37.656,-7.749c18.073,-3.802 105.297,-36.197 116.439,-37.839c24.394,-3.595 13.761,-13.35 12.458,-14.103c-6.686,-3.864 -28.469,-16.452 -91.728,-30.048c-16.805,-3.612 -16.965,-1.913 -33.603,-6.763c-15.446,-4.502 -15.994,-0.41 -37.432,-4.789c-14.524,-2.967 -107.535,-6.306 -116.896,-6.642c-19.214,-0.69 -37.926,-31.21 -12.213,-23.557c7.041,2.096 17.813,5.301 91.543,-7.262c4.165,-0.71 3.897,-1.554 50.722,-14.703c14.539,-4.083 32.939,-14.391 62.226,-21.253c1.44,-0.337 43.196,-16.646 78.727,-22.411c11.995,-3.197 24.5,-7.529 26.063,-0.242c1.416,6.604 -1.809,41.787 29.66,61.289c2.697,1.671 15.718,4.643 3.523,11.276c-1.323,0.719 -1.757,-1.007 -17.778,6.188c-18.386,4.618 -11.736,10.89 -10.702,11.615c5.253,3.685 5.599,2.802 10.607,6.516c12.09,8.966 13.638,6.352 25.716,15.469c3.525,2.66 10.107,5.867 11.02,6.312c17.719,15.338 51.783,29.668 30.34,36.237c-42.181,12.923 -42.933,21.835 -58.803,28.411c-5.588,2.315 -8.715,6.271 -9.352,6.804c-10.24,6.758 -8.823,8.629 -19.878,13.824c-0.784,0.369 -58.615,41.726 -66.272,46.501c-2.556,1.831 -10.762,7.712 -33.618,20.353c-8.871,4.906 -9.497,3.254 -15.067,6.287c-0.852,0.464 -0.082,2.292 -0.934,2.755c0.342,1.049 0.685,2.097 1.027,3.146c16.645,9.15 47.296,13.402 60.443,23.204c11.343,8.457 12.726,5.709 25.044,12.711c21.37,12.147 42.462,19.097 45.472,21.015c49.318,31.438 133.603,47.243 124.537,23.571c-3.643,-9.511 -4.557,-8.888 -4.831,-9.711c-0.96,-2.891 -9.845,-29.662 -11.476,-36.31c-9.579,-39.045 -9.884,-38.767 -10.687,-42.152c-9.329,-32.043 -9.941,-31.683 -21.772,-54.089c1.654,0.08 3.103,1.349 4.756,1.429c1.206,0.058 12.216,-12.453 52.42,53.898c7.191,11.868 5.846,12.446 13.221,24.313c12.163,27.468 36.747,65.789 63.365,64.946c10.494,-0.332 17.59,-5.285 14.947,4.949c-0.222,0.862 -0.758,0.353 -8.143,7.577c-17.949,14.751 -19.009,12.945 -40.377,21.973c-5.534,2.338 -96.919,30.217 -195.273,-5.245c-34.27,-12.356 -34.247,-12 -67.197,-27.793c-38.166,-18.293 -39.007,-15.826 -79.266,-28.708c-4.837,-1.548 -32.747,-6.702 -35.802,0.189c-3.618,8.158 10.172,6.763 13.227,65.909c0.967,18.728 -8.182,11.296 -8.94,10.495c-0.481,-0.508 0.65,-1.216 -4.973,-7.187c-35.416,-37.604 -101.739,-48.16 -109.326,-47.686c-14.531,0.909 -14.331,0.352 -28.786,-0.549c-1.1,1.302 -2.2,2.603 -3.299,3.905c-0.427,1.317 -2.833,1.255 -3.26,2.572c0,0 3.443,3.104 3.743,3.374c4.551,1.877 12.418,4.756 20.303,13.189c10.294,11.01 17.514,16.727 22.015,27.086c0.713,1.642 7.119,16.384 8.263,20.794c0.979,3.773 1.119,7.742 2.22,11.481c0.45,1.529 1.932,2.616 2.382,4.145c9.615,48.149 -17.333,65.581 1.532,66.61c1.605,0.088 30.22,-7.833 42.318,-15.269c1.578,-0.97 23.664,-12.788 36.6,-26.691c5.027,-5.403 5.884,-3.92 13.17,-4.089l-1.641,4.328c-0.885,1.641 -2.769,2.594 -3.654,4.234c-5.571,10.329 -6.656,30.575 -50.74,90.116c-9.16,12.372 -16.725,7.363 -18.957,21.909c-2.894,1.38 -1.639,2.792 -4.598,4.202c-2.101,1.001 -2.257,-0.951 -4.338,0.057c-2.149,1.04 -3.576,3.166 -5.429,4.671c-1.41,1.145 -3.332,1.773 -4.354,3.273c-1.053,1.545 -0.496,3.847 -1.549,5.392c-0.602,7.967 -0.316,7.995 -0.649,8.599c-0.92,1.665 -3.598,1.823 -4.518,3.488c-1.426,0.321 -2.785,-1.545 -4.21,-1.224c-1.677,0.378 -2.407,3.249 -4.119,3.101c-1.886,-0.163 -2.438,-3.13 -4.2,-3.821c-1.289,-0.505 -2.862,-0.028 -4.114,0.563c-1.487,0.702 -1.574,4.981 -16.686,2.243c-5.869,-1.063 -8.415,1.001 -8.745,-4.949c-0.237,-4.274 -1.524,-3.93 -1.482,-8.333c0.015,-1.609 1.575,-2.948 1.59,-4.556l3.577,-0.911c11.96,-7.912 12.115,-11.372 14.023,-14.194l3.038,-1.913c1.749,-0.781 16.669,-7.437 17.953,-15.845c0.11,-0.723 -0.968,-6.898 -1.154,-6.973c-1.052,-0.421 -24.949,3.775 -32.799,4.679c-0.166,-0.001 -92.948,2.073 -65.77,-13.026c27.416,-15.231 25.023,-18.258 33.966,-24.742c7.191,-5.214 6.145,-6.177 12.483,-12.505c17.896,-17.863 15.902,-19.315 24.861,-42.957c0.03,-0.088 9.88,-12.152 -6.161,-37.626c-12.136,-19.273 -44.977,-36.858 -52.787,-39.596c-25.7,-9.01 -31.541,-9.368 -34.391,-9.543c-37.387,-2.295 -79.08,6.255 -83.256,6.638c-69.328,6.361 -148.949,22.913 -162.469,29.691c-26.105,13.089 -26.708,11.759 -28.881,13.065c-10.325,6.208 -11.335,3.914 -21.772,10.033c-8.814,5.086 -10.778,5.844 -11.772,6.228c-18.563,7.167 -18.273,10.277 -24.917,12.67c-49.202,17.722 -81.838,36.546 -87.663,36.97c-13.363,0.973 -2.378,-12.963 -32.793,-41.99c-26.045,-24.856 -34.887,-25.954 -41.683,-29.766c-9.103,-5.194 -9.031,-5.284 -9.834,-5.712c-9.783,-5.531 -9.842,-5.176 -19.09,-11.32c-8.869,-5.893 -8.324,-6.296 -9.112,-6.745c-38.615,-22 -41.096,-31.776 -65.736,-43.083c-4.376,-2.008 -34.339,-15.759 -51.246,-31.556c-9.276,-8.667 -7.949,-9.99 -18.396,-17.082Zm823.617,-809.859c2.779,2.122 5.558,4.243 8.336,6.365c-3.346,3.811 -3.298,3.812 -3.614,4.116c-0.279,0.267 -9.405,3.973 4.134,11.068c-1.345,0.848 -1.855,2.69 -3.2,3.538c-0.978,0.616 -2.335,0.203 -3.41,0.628c-0.465,0.184 -3.87,4.341 -0.634,13.881c4.087,12.049 3.025,12.091 3.211,24.859c-12.204,4.577 -12.543,8.154 -5.622,24.601c0.526,15.008 0.206,14.852 3.003,29.393c-0.184,6.588 1.407,18.355 2,20.897l-1.407,2.644c-10.243,7.274 -8.518,8.984 -8.709,21.64l-3.841,-0.507c-2.131,0.507 -2.021,-0.56 -4.009,-0.087c-0.225,0.053 -1.87,0.445 -2.396,1.611c-1.022,2.266 -0.339,5.147 -1.615,7.279c-1.879,3.138 -15.848,5.455 -18.77,9.837c-6.761,10.141 -7.045,9.928 -7.556,10.854c-4.166,7.558 -2.192,7.993 -2.603,8.58c-0.887,1.267 -3.062,1.169 -3.949,2.436c-7.025,-1.693 -11.292,-5.932 -10.408,1.218c1.255,10.157 -5.199,6.286 -7.036,8.018c-1.384,1.304 -1.501,3.494 -2.194,5.264c-0.531,1.354 -0.619,2.93 -1.477,4.105c-0.606,0.829 -2.052,0.727 -2.658,1.555c-11.045,5.681 -15.004,6.55 -18.365,-5.422c-0.941,-3.351 0.966,-28.889 -2.827,-42.292c-2.005,-7.085 -1.47,-7.682 -1.031,-8.173c0.901,-1.006 2.841,0.62 4.052,0.021c4.558,-2.257 -0.741,-4.421 2.564,-17.742c0.772,-0.268 9.649,-3.345 9.649,-3.345c0.565,-0.32 0.221,-0.548 3.033,-7.529c3.044,-12.585 4.858,-12.649 1.403,-25.279c0.913,-6.307 -0.035,-6.28 0.859,-12.642c2.459,-1.877 4.918,-3.753 7.377,-5.63c0.545,-1.522 3.391,-1.312 3.937,-2.834c0.922,-2.575 -0.409,-5.503 0.016,-8.204c0.219,-1.393 2.039,-0.656 6.651,-16.324c5.705,-1.542 5.671,-1.525 6.161,-1.666c2.646,-0.76 2.369,-1.089 5.074,-1.866c4.996,-11.842 2.035,-12.091 0.023,-24.814c1.19,-0.181 2.143,-1.207 3.333,-1.388c3.341,-0.508 10.733,3.64 13.541,-3.446c2.064,-5.21 3.223,-4.342 5.418,-9.256c2.013,-4.505 -3.611,-5.735 1.464,-12.401c3.524,-4.629 3.86,-4.162 4.136,-4.571c2.266,-3.364 1.584,-5.211 4.833,-4.148c1.56,0.51 1.861,3.106 3.452,3.51c0.826,0.21 0.492,-1.635 0.808,-2.427c4.526,-11.35 8.405,-6.021 8.865,-5.926Zm-80.58,80.422l5.694,7.145c-0.927,2.232 -3.575,3.45 -4.502,5.682c-0.282,0.68 -0.574,1.382 4.299,8.141c-0.894,6.362 0.054,6.335 -0.859,12.642c-4.074,2.135 -3.901,2.199 -8.066,4.227c-3.66,1.782 -3.278,4.247 -3.567,4.622c-0.653,1.704 -3.193,2.191 -3.845,3.894c-0.487,1.27 0.685,2.644 0.822,3.997c0.984,9.776 -1.527,9.787 0.572,19.413c-3.305,13.321 1.995,15.485 -2.564,17.742c-1.21,0.599 -3.151,-1.027 -4.052,-0.021c-0.44,0.491 -0.974,1.088 1.031,8.173c3.793,13.403 1.886,38.941 2.827,42.292c3.361,11.972 7.32,11.103 18.365,5.422c0.606,-0.829 2.052,-0.727 2.658,-1.555c0.858,-1.174 0.947,-2.751 1.477,-4.105c0.694,-1.77 0.811,-3.96 2.194,-5.264c1.837,-1.731 8.291,2.139 7.036,-8.018c-0.883,-7.15 3.383,-2.911 10.408,-1.218c7.595,2.249 7.516,2.466 8.2,2.428c2.319,-0.128 1.785,-1.368 4.235,-1.504l5.178,2.446l4.397,0.15c-7.615,6.231 -66.947,44.816 -74.104,28.818c-2.077,-4.643 -1.323,-4.851 -2.156,-63.618c-0.038,-2.656 5.41,-34.12 5.922,-37.081c1.004,-5.798 9.096,-36.556 18.401,-54.852Zm105.403,-45.613c2.713,56.877 1.708,57.84 -3.839,79.375c-5.471,21.241 -3.574,21.798 -12.78,41.77c-13.344,28.951 -15.688,27.4 -36.847,51.2l-4.397,-0.15c0.873,-1.384 -1.273,-3.509 -0.4,-4.892c1.222,-1.936 2.772,1.708 3.767,-0.442c1.095,-2.365 -2.727,-1.805 -1.606,-4.226c-1.36,-0.078 -1.774,-2.546 -3.134,-2.624c-5.203,-0.298 -4.858,7.648 -4.824,8.423c0.024,0.554 0.995,0.761 1.019,1.315c-2.45,0.135 -1.916,1.375 -4.235,1.504c-0.683,0.038 -0.604,-0.179 -8.2,-2.428c0.887,-1.267 3.062,-1.169 3.949,-2.436c0.411,-0.588 -1.563,-1.022 2.603,-8.58c0.511,-0.927 0.794,-0.714 7.556,-10.854c2.921,-4.381 16.891,-6.699 18.77,-9.837c1.277,-2.132 0.593,-5.014 1.615,-7.279c0.526,-1.166 2.171,-1.557 2.396,-1.611c1.988,-0.473 1.879,0.594 4.009,0.087c0.512,6.096 -5.348,9.765 0.797,9.501c0.452,-0.019 1.641,-0.071 3.198,-4.67c0.462,-1.366 -0.617,-2.958 -0.154,-4.324c0.191,-12.656 -1.533,-14.365 8.709,-21.64c0.469,-0.881 0.938,-1.763 1.407,-2.644c-0.592,-2.542 -2.184,-14.308 -2,-20.897c3.199,-3.89 2.285,-4.483 6.196,-7.534c3.882,-3.028 2.394,-3.855 3.624,-8.534c1.066,-0.799 2.675,-0.61 3.741,-1.409c3.591,-2.692 2.317,-3.399 3.141,-7.735c2.213,-11.645 2.498,-11.507 2.475,-12.528c-0.786,-34.573 -0.383,-34.544 -0.603,-37.539c1.348,-2.787 2.696,-5.574 4.044,-8.362Zm-24.823,-34.809c-0.46,-0.095 -4.339,-5.424 -8.865,5.926c-0.316,0.792 0.018,2.637 -0.808,2.427c-1.59,-0.405 -1.892,-3 -3.452,-3.51c-3.249,-1.063 -2.567,0.784 -4.833,4.148c-0.276,0.409 -0.612,-0.057 -4.136,4.571c-5.075,6.667 0.549,7.897 -1.464,12.401c-2.195,4.913 -3.354,4.046 -5.418,9.256c-2.807,7.086 -10.199,2.939 -13.541,3.446c-1.19,0.181 -2.143,1.207 -3.333,1.388c-3.619,-0.783 -7.237,-1.566 -10.856,-2.349c28.217,-30.722 24.33,-35.387 60.483,-56.413c14.505,-8.436 15.516,20.52 17.823,36.759c-6.107,6.25 -5.793,6.81 -6.53,6.682c0,0 -5.716,-2.928 -6.213,-3.183c-13.539,-7.096 -4.412,-10.801 -4.134,-11.068c0.316,-0.303 0.268,-0.305 3.614,-4.116c0.02,-0.024 3.681,-0.51 3.902,-4.584c0.04,-0.728 0.494,-9.101 0.494,-9.101c-0.842,-0.819 -3.27,-3.182 -12.732,7.32Zm21.599,18.05c2.521,8.271 2.033,8.227 3.224,16.759c-1.348,2.787 -2.696,5.574 -4.044,8.362c-6.62,-13.235 -9.252,-11.254 -9.969,-10.355c-4.105,5.149 -1.456,5.511 -0.214,7.206c0.777,1.06 3.139,0.928 2.451,40.698c-0.205,11.867 -4.612,11.109 -5.377,12.521c-0.236,0.436 0.113,6.444 0.377,6.744c1.024,1.162 2.955,1.236 3.979,2.398c-1.23,4.68 0.259,5.506 -3.624,8.534c-3.911,3.051 -2.997,3.644 -6.196,7.534c-2.798,-14.542 -2.477,-14.386 -3.003,-29.393c1.414,-1.741 3.955,-2.314 5.369,-4.055c3.121,-3.844 0.532,-18.925 0.254,-20.545c-0.186,-12.769 0.876,-12.811 -3.211,-24.859c-3.236,-9.54 0.169,-13.697 0.634,-13.881c1.074,-0.425 2.432,-0.012 3.41,-0.628c1.345,-0.848 1.855,-2.69 3.2,-3.538c0.497,0.255 6.213,3.183 6.213,3.183c0.736,0.128 0.422,-0.432 6.53,-6.682Zm-78.305,19.653c3.619,0.783 7.237,1.566 10.856,2.349c2.012,12.723 4.972,12.972 -0.023,24.814c-1.349,-1.072 -3.797,1.566 -5.146,0.494c-0.96,-0.763 1.284,-16.854 -4.067,-18.186c-1.095,-0.273 -0.257,2.315 -0.847,3.276c-0.447,0.729 -1.864,0.67 -2.082,1.497c-0.686,2.599 -0.587,5.369 -0.439,8.053c0.156,2.831 1.19,5.568 1.346,8.399c-4.612,15.667 -6.432,14.931 -6.651,16.324c-0.425,2.702 0.906,5.63 -0.016,8.204c-0.545,1.522 -3.391,1.312 -3.937,2.834c-3.933,-3.919 -4.316,-3.47 -7.174,-8.193l-5.694,-7.145c8.133,-20.992 21.577,-39.548 23.874,-42.719Zm77.484,5.467c0.22,2.995 -0.182,2.966 0.603,37.539c0.023,1.021 -0.262,0.883 -2.475,12.528c-0.824,4.336 0.449,5.043 -3.141,7.735c-1.066,0.799 -2.675,0.61 -3.741,1.409c-1.024,-1.162 -2.955,-1.236 -3.979,-2.398c-0.264,-0.299 -0.613,-6.308 -0.377,-6.744c0.765,-1.412 5.172,-0.654 5.377,-12.521c0.688,-39.77 -1.674,-39.638 -2.451,-40.698c-1.242,-1.695 -3.891,-2.057 0.214,-7.206c0.717,-0.899 3.349,-2.88 9.969,10.355Zm-108.359,79.71c2.409,1.359 1.698,1.994 3.937,3.256c2.093,1.18 2.072,0 2.125,0.162c0.556,1.683 -4.648,6.94 4.168,13.012c-2.812,6.981 -2.468,7.209 -3.033,7.529c0,0 -8.877,3.077 -9.649,3.345c-2.099,-9.626 0.412,-9.637 -0.572,-19.413c-0.136,-1.353 -1.308,-2.727 -0.822,-3.997c0.653,-1.704 3.193,-2.191 3.845,-3.894Zm92.404,-58.425c0.278,1.62 2.868,16.701 -0.254,20.545c-1.414,1.741 -3.955,2.314 -5.369,4.055c-6.921,-16.447 -6.582,-20.024 5.622,-24.601Zm-80.771,49.577c3.455,12.63 1.642,12.694 -1.403,25.279c-8.816,-6.072 -3.612,-11.329 -4.168,-13.012c-0.054,-0.162 -0.032,1.018 -2.125,-0.162c-2.239,-1.263 -1.527,-1.898 -3.937,-3.256c0.289,-0.375 -0.093,-2.84 3.567,-4.622c4.164,-2.028 3.991,-2.092 8.066,-4.227Zm30.075,-49.166c-2.705,0.777 -2.428,1.106 -5.074,1.866c-0.491,0.141 -0.456,0.123 -6.161,1.666c-0.156,-2.831 -1.19,-5.568 -1.346,-8.399c-0.148,-2.684 -0.247,-5.454 0.439,-8.053c0.218,-0.826 1.635,-0.768 2.082,-1.497c0.59,-0.961 -0.248,-3.549 0.847,-3.276c5.351,1.333 3.107,17.424 4.067,18.186c1.349,1.072 3.797,-1.566 5.146,-0.494Zm45.873,-64.867c9.462,-10.501 11.89,-8.139 12.732,-7.32c0,0 -0.454,8.373 -0.494,9.101c-0.221,4.074 -3.882,4.56 -3.902,4.584c-2.779,-2.122 -5.558,-4.243 -8.336,-6.365Zm-74.886,87.567c2.858,4.724 3.241,4.274 7.174,8.193c-2.459,1.877 -4.918,3.753 -7.377,5.63c-4.873,-6.759 -4.582,-7.461 -4.299,-8.141c0.927,-2.232 3.575,-3.45 4.502,-5.682Zm43.607,109.877c-1.12,2.421 2.701,1.861 1.606,4.226c-0.995,2.15 -2.545,-1.493 -3.767,0.442c-0.873,1.384 1.273,3.509 0.4,4.892l-5.178,-2.446c-0.024,-0.554 -0.995,-0.761 -1.019,-1.315c-0.034,-0.776 -0.379,-8.721 4.824,-8.423c1.36,0.078 1.774,2.546 3.134,2.624Zm21.526,-34.321l3.841,0.507c-0.462,1.366 0.617,2.958 0.154,4.324c-1.556,4.6 -2.745,4.651 -3.198,4.67c-6.145,0.264 -0.286,-3.405 -0.797,-9.501Z" style="fill:currentColor"/></g> <text x="20" y="1950" 
      font-family="Delius" 
      font-size="120" 
      font-weight="bold"
      fill="currentColor">SWSystem's</text>

<text x="1070" y="1950" 
      font-family="Delius" 
      font-size="100"
      fill="currentColor">By: Lincoln Ingaroca</text></svg>


