<?xml version="1.0" encoding="UTF-8" standalone="no"?>
<!DOCTYPE svg PUBLIC "-//W3C//DTD SVG 1.1//EN" "http://www.w3.org/Graphics/SVG/1.1/DTD/svg11.dtd">
<svg width="100%" height="100%" viewBox="0 0 480 480" version="1.1" xmlns="http://www.w3.org/2000/svg" xmlns:xlink="http://www.w3.org/1999/xlink" xml:space="preserve" xmlns:serif="http://www.serif.com/" style="fill-rule:evenodd;clip-rule:evenodd;stroke-linejoin:round;stroke-miterlimit:2;">
    <g id="Fondo" transform="matrix(1,0,0,1,0,2)">
        <path d="M0,241.5L0,220.5C1.367,220.199 1.402,220.371 2.621,219.726C32.85,203.715 50.31,180.684 51.912,178.861C57.577,172.414 57.806,169.488 57.88,168.537C58.662,158.528 56.28,140.248 71.671,129.769C79.274,124.592 86.317,120.586 97.58,109.58C108.088,99.312 109.63,98.925 111.838,92.619C113.264,88.548 113.695,88.735 114.788,84.581C115.377,82.34 116.282,80.281 117.465,74.493C117.814,72.787 124.182,43.105 132.657,31.615C137.238,25.404 146.204,16.712 147.15,22.576C147.958,27.582 149.533,28.77 156.972,41.218C159.012,44.631 161.009,42.735 165.873,37.873C174.429,29.319 176.928,24.644 187.386,18.303C188.678,17.52 188.599,17.451 203.325,8.195C203.963,7.794 204.08,8.062 211.586,3.668C216.516,0.782 213.633,6.123 216.828,19.416C217.68,22.962 217.548,22.974 218.704,26.437C220.164,30.814 219.371,31.003 221.104,35.637C222.619,39.691 222.52,53.987 223.216,54.725C225.604,57.258 228.387,51.444 253.5,51.572C280.226,51.709 304.8,56.36 324.488,51.052C327.343,50.283 326.637,52.379 324.608,56.558C322.6,60.691 315.723,68.448 313.267,70.181C310.923,71.835 303.688,77.266 292.495,79.409C289.289,80.022 288.341,79.693 288.507,78.502C288.812,76.318 291.402,79.059 299.901,70.769C303.22,67.532 294.58,68.002 289.432,66.83C286.712,66.211 263.576,63.329 255.466,64.162C248.472,64.88 230.778,65.285 221.815,81.666C219.597,85.719 218.504,90.176 207.795,98.882C207.063,99.477 204.689,101.939 198.204,107.122C190.471,113.303 190.452,113.626 190.401,114.482C190.266,116.729 191.692,115.581 199.691,118.043C199.924,118.114 202.233,118.825 202.34,119.552C202.629,121.515 200.826,119.944 191.702,124.865C180.832,130.729 179.259,131.624 170.496,132.053C162.47,132.445 170.138,124.129 163.191,119.957C155.114,115.107 150.081,120.152 128.482,126.439C127.68,126.672 127.723,126.764 118.615,129.861C115.013,131.085 115.221,131.54 104.625,134.927C101.676,135.87 88.641,142.415 83.728,146.756C80.283,149.801 74.013,154.839 71.159,166.407C70.36,169.645 70.457,173.663 72.445,173.134C73.048,172.974 73.969,172.729 78.37,168.065C78.535,167.89 78.719,167.171 79.831,168.265C80.301,168.726 78.894,174.652 76.409,177.421C74.102,179.992 69.567,182.035 63.84,186.896C46.372,201.723 48.825,203.946 41.296,212.316C38.462,215.468 37.638,218.364 24.139,230.065C17.975,235.409 20.1,236.73 22.353,244.534C22.812,246.122 22.16,248.968 24.818,251.051C37.433,260.934 44.48,266.467 54.429,267.867C63.665,269.166 66.829,268.097 81.336,263.062C99.402,256.791 107.168,253.195 125.509,250.564C126.55,250.414 126.516,250.305 138.405,248.044C142.793,247.21 142.665,246.729 148.541,245.705C149.368,245.561 154.321,244.697 158.535,242.53C158.902,242.342 159.171,242.667 159.175,242.243C159.18,241.7 158.539,242.04 158.545,241.493C158.5,241.198 158.454,240.903 158.409,240.609C156.199,239.763 156.021,240.152 154.152,238.708C153.615,238.293 153.52,238.261 153.777,237.618C154.205,236.551 156.92,236.873 160.468,236.312C169.744,234.844 169.72,234.798 170.527,234.682C175.098,234.026 175.012,233.708 179.572,232.859C195.968,229.809 221.089,221.626 223.61,219.592C224.299,219.037 223.899,218.907 223.891,218.42C223.887,218.225 224.197,218.056 224.114,217.879C223.975,217.579 222.713,217.311 222.584,217.283C222.505,217.266 214.124,214.908 213.388,214.701C212.359,214.411 210.961,212.337 214.412,212.117C226.84,211.327 244.781,202.614 252.474,201.379C257.341,200.598 254.72,198.664 254.478,198.525C245.017,193.091 224.148,190.33 221.442,189.972C194.87,186.456 193.028,188.109 187.512,187.393C183.596,186.884 181.281,182.717 181.24,182.562C179.993,177.862 184.138,182.584 196.519,180.639C210.908,178.379 210.766,177.829 212.457,177.35C213.502,177.054 217.548,175.909 225.371,173.155C236.373,169.282 236.418,169.463 237.372,169.123C246.205,165.969 246.236,166.191 255.453,164.273C259.701,163.389 259.159,165.805 259.258,167.515C259.894,178.496 267.679,179.972 268.308,180.669C270.089,182.644 264.797,183.869 262.491,184.473C260.584,184.972 259.447,184.394 259.893,186.35C260.231,187.837 280.947,197.877 280.594,201.516C280.502,202.465 277.75,203.31 277.471,203.396C267.802,206.364 259.771,213.161 244.2,224.107C233.75,231.453 231.079,231.73 229.776,231.865C229.591,232.237 229.01,232.299 228.824,232.671C228.699,232.922 228.973,233.22 228.96,233.5C228.951,233.701 228.618,233.925 228.758,234.07C229.09,234.412 229.149,234.229 232.139,233.964C252.498,240.122 271.025,255.634 288.539,254.962C292.888,254.795 289.907,252.339 286.212,238.576C282.221,223.705 280.506,221.672 279.511,220.492C278.222,218.963 276.917,218.719 278.472,217.464C280.607,215.742 288.88,222.764 291.632,228.433C292.101,229.399 292.299,229.277 297.956,240.265C302.817,249.706 307.2,251.392 308.362,251.839C313.218,253.708 315.888,251.276 315.919,253.455C315.946,255.357 306.544,262.474 297.514,263.61C273.195,266.668 264.37,264.944 238.648,253.173C229.763,249.107 229.654,249.42 219.463,246.674C212.424,244.776 213.393,248.016 213.543,248.488C213.836,249.416 216.618,255.087 216.457,264.492C216.428,266.188 215.312,267.016 213.782,265.222C204.995,254.915 194.193,253.013 180.6,251.907C179.286,251.821 178.955,251.291 178.375,252.5C178.242,252.776 177.829,252.998 177.91,253.294C177.974,253.53 178.435,253.29 178.63,253.437C178.808,253.572 178.718,253.931 178.909,254.048C179.179,254.214 179.58,254.019 179.85,254.184C188.877,259.396 192.828,269.794 193.104,276.522C193.385,283.38 189.003,289.402 194.553,287.683C209.581,283.029 210.246,277.981 212.618,276.803C212.885,276.67 215.305,276.197 213.37,280.459C208.986,290.115 206.72,296.136 198.779,303.668C198.241,304.144 197.439,304.25 196.9,304.726C196.689,304.912 196.553,306.437 197.46,306.595C199,306.863 198.875,306.289 200.495,305.398C206.213,303.452 206.072,303.179 211.262,300.098C215.585,297.532 224.037,289.278 226.049,285.258C232.784,271.808 227.19,265.091 227.245,263.457C227.263,262.901 228.39,260.985 231.079,264.867C238.448,275.504 238.496,279.388 236.26,289.454C235.608,292.389 235.875,294.022 238.613,292.781C242.523,291.01 242.512,291.107 246.609,289.814C268.311,282.968 268.589,284.01 270.459,283.369C276.968,281.135 297.225,280.781 302.426,282.646C303.758,283.124 304.128,283.01 304.172,284.453C304.18,284.713 304.475,285.011 304.32,285.22C303.641,286.129 292.873,282.359 265.584,295.676C264.985,295.968 243.062,307.75 242.316,308.194C235.977,311.962 235.951,311.85 229.316,315.118C213.474,322.921 212.935,321.733 201.4,325.07C200.196,325.418 184.084,327.376 173.505,327.668C156.976,328.125 157.028,328.756 140.491,329.239C112.065,330.069 95.126,334.911 93.472,335.455C92.387,335.813 92.38,336.306 92.234,336.394C91.853,336.621 91.329,336.555 90.97,336.816C90.787,336.95 89.94,338.828 93.509,338.066C101.893,336.279 101.911,336.503 109.53,335.927C121.117,335.051 137.303,336.528 144.178,339.715C143.917,340.21 143.657,340.705 143.397,341.2C126.924,340.889 126.966,341.34 110.553,342.877C102.465,343.635 80.54,348.727 68.743,355.898C62.866,359.471 62.613,359.043 50.781,367.729C48.98,368.731 47.621,368.572 48.785,370.269C49.466,371.263 49.7,370.601 52.475,369.71C67.344,368.312 77.529,371.207 89.527,372.24C104.271,373.51 145.531,385.875 168.313,368.064C173.464,364.037 170.271,377.852 155.683,385.854C145.516,391.43 137.149,395.474 137.999,397.362C138.771,399.073 139.73,397.894 145.56,399.241C189.241,409.339 194.885,411.668 216.515,413.344C217.507,413.421 227.998,415.192 241.506,414.655C243.536,414.574 259.77,412.277 260.419,412.123C270.97,409.621 279.859,404.332 281.422,403.401C282.389,402.778 282.404,402.854 283.532,402.54C284.817,402.183 284.629,401.904 285.964,400.632C286.99,400.226 287.664,400.531 287.317,399.462C286.771,397.784 286.179,398.553 284.537,399.125C282.915,399.567 282.973,399.647 281.5,400.461C278.98,401.05 273.456,403.627 248.505,404.671C247.142,404.728 245.87,404.781 231.484,403.657C228.902,403.455 221.995,401.942 221.885,401.222C221.84,400.927 222.314,400.708 222.269,400.413L222.615,399.733C237.948,399.283 253.257,399.29 281.321,386.105C294.972,379.692 314.185,364.851 314.531,364.534C314.819,364.271 330.96,352.302 331.197,352.119C345.532,341.086 350.386,339.059 353.33,337.225C359.856,333.159 374.579,326.839 375.516,326.628C375.75,326.576 379.173,326.6 375.65,329.63C364.276,339.409 354.601,362.304 345.649,371.581C344.121,372.726 344.111,372.696 343.999,372.817C343.879,372.948 343.045,373.85 343.699,375.016C344.344,376.167 344.574,375.094 346.502,373.623C353.053,370.35 361.884,366.13 371.613,357.629C381.868,348.669 384.786,341.626 385.504,341.511C388.044,341.107 386.421,342.913 385.694,354.516C385.447,358.47 382.707,380.878 386.185,374.249C386.806,373.066 386.049,372.721 390.074,366.237C395.544,357.425 417.367,327.984 417.642,312.524C417.675,310.658 417.624,310.69 417.627,310.531C417.637,310.02 417.689,310.067 417.698,309.583L418.384,309.214C418.707,309.275 418.94,308.705 419.263,308.766C419.346,308.782 419.329,308.832 421.44,315.521C421.761,316.537 421.576,316.569 424.044,328.576C424.086,328.78 424.303,332.371 424.287,332.606C424.266,332.914 423.896,333.126 423.875,333.434C423.975,333.904 423.625,333.956 424.167,334.809C424.404,335.181 424.456,335.677 425.514,335.524C426.818,335.336 426.178,334.751 426.406,333.441C427.316,329.105 435.943,304.955 432.723,248.488C431.406,225.385 425.367,195.083 423.877,191.358C423.511,190.443 423.815,190.35 420.202,179.603C413.336,159.181 404.888,153.514 404.839,153.352C404.825,153.305 404.815,151.412 406.456,151.951C410.823,153.382 420.858,158.908 425.621,166.427C428.59,171.115 429.113,170.803 433.185,179.642C433.462,180.242 436.525,188.948 437.564,191.475C441.731,201.612 451.712,262.053 451.809,262.426C453.541,269.045 453.012,269.142 455.01,275.652C455.973,278.788 459.429,296.036 470.661,302.212C473.609,303.833 478.452,303.352 478.276,305.448C478.211,306.219 471.459,313.051 458.525,312.209C454.401,311.94 450.205,310.85 449.881,313.544C448.579,324.362 453.578,327.838 432.159,369.328C421.102,390.745 414.173,399.692 420.343,409.604C421.352,411.224 425.752,414.229 422.681,414.842C412.14,416.947 402.514,412.559 399.657,404.443C397.785,399.124 398.342,398.971 398.17,398.786C397.271,397.825 396.85,398.267 396.558,399.577C396.431,400.146 390.899,409.095 387.34,412.321C377.48,421.258 376.489,419.813 359.198,430.021C357.411,431.076 349.26,434.793 343.063,444.199C342.343,445.293 341.713,446.72 340.475,446.608C339.743,446.542 338.644,446.443 339.382,437.491C339.391,437.381 340.372,430.652 342.985,425.761C343.628,424.557 343.818,424.703 344.42,423.468C345.083,422.109 344.441,422.126 343.542,420.916C310.261,432.702 295.262,434.806 287.525,436.611C274.792,439.583 259.932,439.932 257.517,439.989C255.2,440.044 235.075,440.518 228.568,439.162C224.752,438.367 218.101,437.96 212.553,436.318C211.603,436.037 198.644,432.919 190.512,430.462C189.228,430.074 189.279,430.001 174.565,425.303C166.985,422.883 167.066,422.699 141.558,414.327C133.058,411.537 105.017,403.75 97.46,402.709C96.853,402.626 90.091,401.695 89.984,401.087C89.941,400.845 90.318,400.716 90.422,400.493C90.592,400.13 90.288,399.645 91.485,399.467C103.5,397.679 103.128,396.38 117.435,390.418L118.372,390.312C118.689,390.26 119.016,390.281 119.333,390.229C121.023,389.952 120.194,388.975 120.205,388.655C119.932,388.375 119.658,388.095 119.385,387.815C118.718,387.856 118.05,387.898 117.383,387.939C111.253,387.568 111.328,387.312 105.419,385.827C86.343,381.035 86.979,378.397 67.442,375.914C51.12,373.839 43.693,376.747 37.514,377.081C29.278,377.526 50.873,354.292 64.16,344.086C79.965,331.945 88.942,327.418 110.489,323.443C125.484,320.676 137.211,320.331 140.51,319.551C148.404,317.684 154.11,317.915 157.406,317.089C167.339,314.601 167.341,314.74 172.596,312.746C179.263,310.217 188.348,302.98 188.345,302.443C188.344,302.162 188.016,301.948 188.014,301.667C187.83,301.362 187.646,301.057 187.461,300.752C177.45,302.076 170.287,301.135 165.443,300.744C162.746,300.527 162.746,300.11 162.733,299.464C162.694,297.574 166.167,297.669 170.42,294.393C179.81,287.159 180.325,284.903 182.645,278.548C184.472,273.541 180.694,268.145 176.29,264.786C166.79,257.54 157.225,258.149 155.484,258.26C132.279,259.738 112.364,264.178 109.529,264.663C99.362,266.401 88.068,273.501 81.426,276.342C65.862,283.001 65.947,283.14 64.576,283.673C59.724,285.557 58.531,287.101 57.129,283.666C53.745,275.372 42.634,268.942 41.54,268.418C37.098,266.292 25.755,258.807 24.358,257.695C13.134,248.758 10.772,251.92 2.266,242.722C0.675,241.002 0.217,241.59 0,241.5ZM197.42,43.365C199.097,43.478 199.068,43.237 200.763,43.313C200.997,44.044 201.231,44.776 201.464,45.507C201.66,48.648 201.479,48.682 202.525,51.496L203.028,52.554C202.999,52.884 202.712,53.155 202.682,53.484C202.555,54.921 202.677,54.917 202.561,71.511C202.486,71.705 201.947,72.127 201.769,73.571C201.593,74.993 201.212,74.823 200.946,75.618C200.739,76.236 200.874,76.935 200.671,77.554C200.663,77.578 199.931,78.323 199.777,79.596C199.739,79.913 199.754,80.236 199.715,80.554C198.868,82.462 198.872,82.447 198.525,84.511C198.163,85.163 197.801,85.814 197.439,86.466C197.156,86.852 197.517,86.958 197.236,87.343C197.019,87.639 196.844,87.297 196.624,87.579C196.445,87.809 196.575,88.194 196.396,88.424C196.273,88.464 194.868,88.926 194.868,88.926C194.572,89.215 194.96,89.393 194.618,89.629C194.349,89.815 193.971,89.73 193.646,89.77C190.772,90.123 191.467,91.114 191.165,92.344C191.13,92.488 190.835,92.452 190.799,92.595C190.639,93.244 190.77,93.942 190.609,94.59C190.276,94.936 189.943,95.282 189.61,95.628C189.273,95.931 189.142,95.621 188.813,95.917C188.536,96.166 188.86,96.325 188.557,96.573C188.333,96.756 187.937,96.616 187.722,96.809C187.54,96.973 187.697,97.355 187.51,97.515C187.283,97.709 186.872,97.544 186.642,97.733C186.465,97.879 186.625,98.252 186.444,98.393C186.201,98.583 185.784,98.403 185.54,98.593C184.586,98.977 183.631,99.36 182.676,99.744C182.303,100.036 181.93,100.329 181.557,100.621C181.215,100.681 181.713,101.101 181.351,101.164C180.912,101.241 181.083,100.694 180.617,100.785C180.425,100.823 180.627,101.307 180.435,101.345C178.949,101.441 178.987,101.457 177.509,101.535C174.902,101.672 174.725,102.444 174.479,102.556C174.252,102.382 174.544,101.888 174.317,101.715C173.825,101.339 173.581,102.065 173.195,101.576C172.808,101.086 173.754,101.002 173.367,100.512C173.375,99.459 173.501,89.461 173.513,88.5C173.532,87.169 173.55,85.838 173.568,84.506C174.096,82.553 174.049,82.547 174.138,82.397C174.385,81.977 174.95,81.815 175.211,81.404C175.466,81.004 175.463,81.008 175.434,75.486C176.242,73.573 176.19,73.557 176.307,73.421C176.524,73.167 177.023,73.614 177.33,72.426C177.61,71.347 177.752,71.425 178.127,70.365C178.127,70.365 178.405,66.78 178.429,66.469C178.445,66.457 179.516,66.44 180.019,65.312C180.082,65.17 180.037,65.169 180.271,63.384C180.574,62.698 180.876,62.013 181.178,61.328C182.197,60.792 183.563,61.561 184.325,56.39C184.502,56.209 184.879,56.363 185.056,56.182C185.26,55.972 185.134,55.562 185.337,55.351C185.521,55.159 185.901,55.283 186.094,55.1C186.28,54.923 186.187,54.566 186.362,54.378C186.76,53.95 187.041,54.187 187.244,53.317C187.312,53.024 187.23,52.671 187.41,52.429C187.646,52.114 187.821,52.479 188.092,52.18C188.395,51.847 188.062,51.712 188.366,51.377C188.69,51.036 189.014,50.694 189.338,50.352C189.522,50.166 189.879,50.241 190.063,50.055C190.243,49.874 190.155,49.515 190.341,49.339C190.531,49.16 190.897,49.274 191.084,49.092C191.271,48.912 191.171,48.547 191.353,48.361C191.634,48.073 191.751,48.393 192.053,48.1C192.352,47.812 192.05,47.686 192.373,47.373C192.691,47.053 192.812,47.339 193.109,47.04C193.392,46.754 193.077,46.601 193.384,46.353C193.616,46.165 194.021,46.313 194.248,46.119C194.429,45.965 194.274,45.592 194.454,45.438C194.796,45.116 195.138,44.794 195.48,44.473C197.095,44.036 197.112,44.094 197.223,44.001C197.51,43.762 197.138,43.601 197.42,43.365ZM196.396,88.424C196.106,88.756 196.432,88.882 196.144,89.213C195.892,89.501 195.726,89.17 195.476,89.477C195.299,89.694 195.415,90.052 195.267,90.288C195.146,90.481 194.854,90.509 194.717,90.691C193.209,92.698 193.445,92.863 191.461,94.463L190.609,94.59C190.77,93.942 190.639,93.244 190.799,92.595C190.835,92.452 191.13,92.488 191.165,92.344C191.467,91.114 190.772,90.123 193.646,89.77C193.971,89.73 194.349,89.815 194.618,89.629C194.96,89.393 194.572,89.215 194.868,88.926C194.868,88.926 196.273,88.464 196.396,88.424ZM202.561,71.511L202.508,72.502C202.446,73.058 201.93,77.673 201.102,79.35C201.022,79.511 200.677,79.375 200.594,79.535C200.444,79.822 200.546,80.18 200.502,80.501C200.502,80.501 200.153,82.203 200.123,82.351C199.987,81.752 199.851,81.153 199.715,80.554C199.754,80.236 199.739,79.913 199.777,79.596C199.931,78.323 200.663,77.578 200.671,77.554C200.874,76.935 200.739,76.236 200.946,75.618C201.212,74.823 201.593,74.993 201.769,73.571C201.947,72.127 202.486,71.705 202.561,71.511ZM178.429,66.469C178.405,66.78 178.127,70.365 178.127,70.365C177.752,71.425 177.61,71.347 177.33,72.426C177.023,73.614 176.524,73.167 176.307,73.421C176.19,73.557 176.242,73.573 175.434,75.486C175.488,75.009 175.977,70.664 176.846,69.662C176.972,69.516 177.301,69.625 177.385,69.452C177.494,69.224 177.462,69.231 178.429,66.469ZM180.435,101.345C177.762,102.527 177.774,102.507 177.548,102.621C177.406,102.693 177.473,103.002 177.319,103.042C177.089,103.101 176.855,102.784 176.629,102.859C176.468,102.912 176.583,103.237 176.442,103.332C176.099,103.564 174.148,103.877 173.554,103.43C173.332,103.263 173.358,102.876 173.136,102.709L174.479,102.556C174.725,102.444 174.902,101.672 177.509,101.535C178.987,101.457 178.949,101.441 180.435,101.345ZM183.617,56.577L184.325,56.39C183.563,61.561 182.197,60.792 181.178,61.328L181.198,60.333C181.288,60.103 182.033,58.2 182.7,57.64C182.879,57.489 183.21,57.589 183.363,57.412C183.553,57.192 183.427,56.797 183.617,56.577ZM175.434,75.486C175.463,81.008 175.466,81.004 175.211,81.404C174.95,81.815 174.385,81.977 174.138,82.397C174.049,82.547 174.096,82.553 173.568,84.506C173.912,79.878 174.018,79.926 175.434,75.486ZM197.42,43.365C197.678,43.066 197.392,42.977 197.634,42.697C197.935,42.349 198.05,42.577 198.381,42.252C199.103,41.543 199.034,41.418 199.489,41.405C200.874,41.363 200.47,41.988 200.763,43.313C199.068,43.237 199.097,43.478 197.42,43.365Z" style="fill:currentColor;"/>
        <path d="M348.435,239.492C348.301,240.575 348.101,248.211 344.14,245C323.317,228.118 304.876,232.58 303.51,230.495C301.931,228.084 315.886,226.32 322.519,227.346C329.034,228.354 328.962,228.487 335.482,229.62C341.326,230.635 334.542,214.953 328.797,208.241C322.364,200.724 322.491,200.655 320.333,198.612C317.628,196.051 320.162,195.995 320.367,196.026C321.964,196.267 321.576,197.476 339.543,202.33C344.003,203.535 343.939,203.632 348.515,204.405C362.345,206.745 373.121,205.754 381.491,205.413C385.362,205.255 382.399,201.997 379.934,196.306C379.886,196.193 373.272,180.318 368.804,170.358C367.333,167.079 360.282,152.077 356.269,147.659C355.288,146.578 354.183,145.902 354.416,144.452C354.789,142.131 362.908,148.09 367.352,153.623C380.958,170.567 394.38,203.438 406.411,208.671C406.692,208.793 406.993,208.864 407.275,208.985C413.858,211.814 397.614,216.439 392.454,217.149C377.116,219.258 361.136,216.242 358.461,215.737C356.979,215.457 350.204,214.691 349.485,214.61C349.122,214.569 345.492,214.159 344.918,214.829C342.711,217.404 350.032,222.065 348.435,239.492Z" style="fill:currentColor;"/>
        <path d="M406.526,101.081C422.072,101.253 422.543,101.109 422.949,102.296C424.051,105.518 414.717,119.341 398.574,124.711C396.119,125.528 394.733,125.026 395.387,127.556C395.593,128.355 399.205,130.324 403.69,133.201C406.137,134.77 419.673,141.478 426.459,150.524C428.299,152.975 426.456,153.79 425.538,153.367C423.456,152.407 422.066,150.445 416.586,148.29C412.258,146.589 408.85,144.644 403.657,143.008C401.359,142.284 388.255,137.404 381.671,130.341C375.712,123.947 372.22,120.126 376.475,120.215C381.273,120.315 388.323,121.529 396.005,115.001C397.35,113.858 397.979,113.587 396.788,112.25C395.653,110.974 395.26,112.283 387.474,111.766C370.254,110.621 350.192,89.988 328.489,84.544C317.268,81.73 315.247,84.031 315.495,81.499C315.654,79.87 333.227,74.086 359.326,86.851C362.382,88.346 381.437,96.554 382.379,96.846C383.943,97.331 388.703,98.806 402.467,100.744C402.79,100.789 403.079,100.83 406.526,101.081Z" style="fill:currentColor;"/>
        <path d="M210.468,126.266C223.026,124.054 254.518,122.279 255.441,122.121C259.432,121.439 259.392,121.478 263.471,121.122C267.222,120.794 270.148,118.792 271.077,119.893C271.799,120.749 270.654,121.415 268.761,122.737C260.821,128.284 254.326,136.125 245.112,146.142C227.228,165.584 202.79,168.841 197.542,167.406C197.144,167.297 194.267,165.352 198.585,164.823C208.485,163.611 221.918,151.491 225.205,147.284C229.962,141.194 229.093,140.721 228.901,140.278C228.184,138.626 217.557,137.82 216.479,137.702C187.564,134.537 187.054,140.487 185.298,138.714C185.179,138.594 184.93,138.553 184.912,138.385C184.722,136.604 192.598,128.545 210.468,126.266Z" style="fill:currentColor;"/>
        <path d="M138.476,156.949C127.778,156.795 122.482,156.205 117.638,158.768C113.015,161.214 110.996,165.178 110.653,165.613C109.032,167.664 109.393,167.836 107.798,170.671C102.68,179.768 99.105,186.237 93.389,188.146C89.587,189.416 81.368,188.456 80.618,188.209C77.573,187.211 79.674,185.974 83.088,174.361C87.065,160.834 112.662,152.862 118.694,147.795C118.929,147.597 123.203,144.007 122.517,147.503C122.493,147.623 118.442,152.207 122.468,151.881C141.38,150.35 151.763,154.055 163.499,151.489C165.518,151.048 166.377,152.569 164.163,154.096C156.361,159.477 140.258,157.073 138.476,156.949Z" style="fill:currentColor;"/>
    </g>
    <text x="5" y="470" 
      font-family="Delius" 
      font-size="22" 
      font-weight="bold"
      fill="currentColor">SWSystem's</text>

<text x="275" y="470" 
      font-family="Delius" 
      font-size="22"
      fill="currentColor">By: Lincoln Ingaroca</text>
</svg>
